<?xml version="1.0" standalone="no"?>
<!DOCTYPE svg PUBLIC "-//W3C//DTD SVG 20010904//EN"
 "http://www.w3.org/TR/2001/REC-SVG-20010904/DTD/svg10.dtd">
<svg version="1.0" xmlns="http://www.w3.org/2000/svg"
 width="1148.000000pt" height="1280.000000pt" viewBox="0 0 1148.000000 1280.000000"
 preserveAspectRatio="xMidYMid meet">
<metadata>
Created by potrace 1.15, written by Peter Selinger 2001-2017
</metadata>
<g transform="translate(0.000000,1280.000000) scale(0.100000,-0.100000)"
fill="#000000" stroke="none">
<path d="M9340 12660 c-35 -6 -1334 -340 -2395 -615 -71 -19 -200 -52 -285
-74 -85 -22 -234 -60 -330 -85 -1754 -454 -2696 -694 -2701 -688 -4 4 -19 59
-34 122 -105 442 -257 847 -400 1067 -179 274 -380 332 -561 162 -229 -218
-399 -780 -479 -1588 -8 -85 -16 -155 -18 -157 -1 -1 -30 -9 -64 -18 l-61 -16
-64 30 c-88 42 -142 41 -232 -5 -39 -19 -75 -35 -82 -35 -23 0 -100 -86 -127
-141 -121 -246 -143 -784 -61 -1516 8 -73 16 -145 19 -160 2 -16 9 -66 15
-113 16 -124 65 -435 80 -510 5 -25 13 -72 19 -105 60 -334 188 -900 290
-1277 12 -43 30 -113 42 -155 95 -360 277 -928 421 -1313 301 -804 615 -1391
866 -1621 30 -27 71 -59 91 -71 l36 -21 -7 -186 c-21 -524 -100 -923 -253
-1281 -45 -106 -133 -273 -189 -359 l-42 -66 -200 -33 c-109 -19 -354 -63
-544 -98 -1392 -261 -2047 -493 -2087 -738 -34 -212 325 -437 967 -605 1398
-366 3895 -495 5820 -300 833 84 1646 238 2140 406 371 125 512 388 306 569
-169 147 -932 424 -1600 578 -1018 237 -2214 345 -3191 291 -143 -8 -306 -15
-361 -15 l-102 0 -26 73 c-14 39 -69 194 -122 342 -298 838 -371 1080 -390
1302 l-6 82 28 7 c66 15 195 88 239 135 44 47 49 50 168 80 67 16 847 217
1732 446 886 228 1711 442 1835 473 530 137 3648 942 3683 951 96 25 159 129
192 317 69 401 15 1147 -150 2048 -315 1719 -952 3580 -1454 4248 -143 190
-249 257 -371 236z m-6431 -505 c84 -43 187 -226 270 -480 46 -140 155 -554
147 -562 -7 -7 -906 -236 -911 -232 -2 3 4 78 15 167 73 592 213 1004 375
1104 36 22 67 23 104 3z"/>
<path d="M3604 3765 c-27 -24 -63 -37 -124 -48 l-25 -4 25 -2 c42 -2 94 17
130 48 19 17 32 30 29 31 -3 0 -19 -11 -35 -25z"/>
</g>
</svg>
