<svg id="svg" version="1.1" xmlns="http://www.w3.org/2000/svg" xmlns:xlink="http://www.w3.org/1999/xlink" width="400" height="400" viewBox="0, 0, 400,400"><g id="svgg"><path id="path0" d="M64.267 176.267 C 64.120 176.413,64.000 183.610,64.000 192.258 L 64.000 207.983 71.900 208.092 L 79.800 208.200 79.908 216.092 L 80.017 223.983 87.908 224.092 L 95.800 224.200 95.905 240.084 L 96.009 255.968 103.990 256.084 L 111.971 256.200 112.085 248.000 C 112.148 243.490,112.110 229.090,112.000 216.000 L 111.800 192.200 104.000 192.000 L 96.200 191.800 96.092 183.900 L 95.983 176.000 80.258 176.000 C 71.610 176.000,64.413 176.120,64.267 176.267 " stroke="none" fill="#ff0000" fill-rule="evenodd"></path><path id="path1" d="M127.901 143.900 L 127.800 239.800 120.000 240.000 L 112.200 240.200 112.097 264.092 L 111.994 287.983 119.897 288.092 L 127.800 288.200 127.905 304.100 L 128.009 320.000 136.003 320.000 L 143.998 320.000 144.099 184.000 L 144.200 48.000 136.101 48.000 L 128.002 48.000 127.901 143.900 " stroke="none" fill="#ff5500" fill-rule="evenodd"></path><path id="path2" d="M144.000 176.534 C 144.000 247.008,144.119 315.228,144.266 328.134 L 144.531 351.600 160.266 351.600 L 176.000 351.600 176.000 272.000 L 176.000 192.400 168.280 192.400 C 162.809 192.400,160.420 192.260,160.080 191.920 C 159.710 191.550,159.600 175.013,159.600 119.920 L 159.600 48.400 151.800 48.400 L 144.000 48.400 144.000 176.534 " stroke="none" fill="#ffff00" fill-rule="evenodd"></path><path id="path3" d="M152.000 48.013 L 144.200 48.226 151.900 48.313 L 159.600 48.400 159.600 119.920 C 159.600 175.013,159.710 191.550,160.080 191.920 C 160.420 192.260,162.809 192.400,168.280 192.400 L 176.000 192.400 176.000 272.000 L 176.000 351.600 160.200 351.600 L 144.400 351.600 144.400 336.024 C 144.400 327.457,144.265 320.364,144.100 320.262 C 143.935 320.160,143.849 327.259,143.909 336.038 L 144.018 352.000 176.009 352.000 L 208.000 352.000 208.000 239.997 L 208.000 127.994 231.900 128.097 L 255.800 128.200 255.908 136.095 L 256.017 143.991 271.908 144.095 L 287.800 144.200 287.908 152.092 L 288.017 159.983 295.908 160.092 L 303.800 160.200 303.908 168.092 L 304.017 175.983 311.908 176.092 L 319.800 176.200 319.800 224.000 L 319.800 271.800 311.903 271.908 L 304.006 272.017 303.903 295.908 L 303.800 319.800 295.905 319.908 L 288.009 320.017 287.905 335.908 L 287.800 351.800 279.916 351.908 L 272.032 352.017 271.916 359.971 C 271.852 364.345,271.935 367.841,272.100 367.739 C 272.265 367.636,272.400 364.143,272.400 359.976 L 272.400 352.400 279.920 352.400 C 285.236 352.400,287.581 352.259,287.920 351.920 C 288.277 351.563,288.400 347.458,288.400 335.920 L 288.400 320.400 295.920 320.400 C 301.236 320.400,303.581 320.259,303.920 319.920 C 304.282 319.558,304.400 313.680,304.400 295.920 L 304.400 272.400 311.920 272.400 C 317.236 272.400,319.581 272.259,319.920 271.920 C 320.617 271.223,320.617 176.777,319.920 176.080 C 319.581 175.741,317.236 175.600,311.920 175.600 L 304.400 175.600 304.400 168.080 C 304.400 158.754,305.246 159.600,295.920 159.600 L 288.400 159.600 288.400 152.080 C 288.400 146.764,288.259 144.419,287.920 144.080 C 287.563 143.723,283.458 143.600,271.920 143.600 L 256.400 143.600 256.400 136.080 C 256.400 130.764,256.259 128.419,255.920 128.080 C 255.558 127.718,249.680 127.600,231.920 127.600 L 208.400 127.600 208.400 120.080 C 208.400 114.764,208.259 112.419,207.920 112.080 C 207.563 111.723,203.458 111.600,191.920 111.600 L 176.400 111.600 176.400 80.024 C 176.400 62.657,176.265 48.364,176.100 48.262 C 175.935 48.160,175.847 62.457,175.905 80.034 L 176.009 111.991 191.905 112.095 L 207.800 112.200 207.908 120.095 L 208.017 127.991 192.108 128.095 L 176.200 128.200 176.000 160.000 L 175.800 191.800 168.000 191.800 L 160.200 191.800 160.103 119.837 C 160.050 80.257,159.960 47.857,159.903 47.837 C 159.846 47.816,156.290 47.896,152.000 48.013 " stroke="none" fill="#55d200" fill-rule="evenodd"></path><path id="path4" d="M224.187 144.500 C 224.084 144.775,223.955 155.530,223.900 168.400 L 223.800 191.800 215.900 191.908 L 208.000 192.017 208.000 272.008 L 208.000 352.000 224.000 352.000 L 240.000 352.000 240.000 248.000 L 240.000 144.000 232.187 144.000 C 226.304 144.000,224.329 144.123,224.187 144.500 " stroke="none" fill="#0080ff" fill-rule="evenodd"></path><path id="path5" d="M240.000 248.000 L 240.000 352.000 255.995 352.000 L 271.991 352.000 272.095 336.100 L 272.200 320.200 280.097 320.092 L 287.994 319.983 288.097 296.092 L 288.200 272.200 296.100 272.092 L 304.000 271.983 304.000 224.000 L 304.000 176.017 296.100 175.908 L 288.200 175.800 288.092 167.900 L 287.983 160.000 279.996 160.000 L 272.009 160.000 271.905 175.900 L 271.800 191.800 264.000 191.800 L 256.200 191.800 256.097 167.900 L 255.994 144.000 247.997 144.000 L 240.000 144.000 240.000 248.000 M287.692 168.300 L 287.800 176.200 295.700 176.308 L 303.600 176.417 303.600 224.000 L 303.600 271.583 295.700 271.692 L 287.800 271.800 287.697 295.700 L 287.594 319.600 279.797 319.600 L 272.000 319.600 272.000 264.066 C 272.000 233.522,272.120 197.702,272.266 184.466 L 272.531 160.400 280.057 160.400 L 287.583 160.400 287.692 168.300 " stroke="none" fill="#5500ff" fill-rule="evenodd"></path><path id="path6" d="M272.266 184.466 C 272.120 197.702,272.000 233.522,272.000 264.066 L 272.000 319.600 279.797 319.600 L 287.594 319.600 287.697 295.700 L 287.800 271.800 295.700 271.692 L 303.600 271.583 303.600 224.000 L 303.600 176.417 295.700 176.308 L 287.800 176.200 287.692 168.300 L 287.583 160.400 280.057 160.400 L 272.531 160.400 272.266 184.466 " stroke="none" fill="#7700ff" fill-rule="evenodd"></path><path id="path7" d="M128.271 32.262 C 128.122 32.411,128.000 36.010,128.000 40.258 L 128.000 47.983 120.100 48.092 L 112.200 48.200 112.099 112.100 L 111.998 176.000 104.007 176.000 L 96.017 176.000 95.908 168.100 L 95.800 160.200 72.000 160.200 L 48.200 160.200 48.200 184.000 L 48.200 207.800 56.092 207.908 L 63.983 208.017 64.092 215.908 L 64.200 223.800 72.095 223.908 L 79.991 224.017 80.095 239.908 L 80.200 255.800 88.095 255.908 L 95.991 256.017 96.095 271.908 L 96.200 287.800 104.095 287.908 L 111.991 288.017 112.095 303.908 L 112.200 319.800 120.097 319.908 L 127.994 320.017 128.097 343.908 L 128.200 367.800 200.000 367.800 L 271.800 367.800 271.908 359.908 L 272.017 352.017 279.908 351.908 L 287.800 351.800 287.905 335.908 L 288.009 320.017 295.905 319.908 L 303.800 319.800 303.903 295.908 L 304.006 272.017 311.903 271.908 L 319.800 271.800 319.800 224.000 L 319.800 176.200 311.908 176.092 L 304.017 175.983 303.908 168.092 L 303.800 160.200 295.908 160.092 L 288.017 159.983 287.908 152.092 L 287.800 144.200 271.908 144.095 L 256.017 143.991 255.908 136.095 L 255.800 128.200 231.908 128.097 L 208.017 127.994 207.908 120.097 L 207.800 112.200 191.902 112.095 L 176.005 111.991 175.902 80.095 L 175.800 48.200 168.000 48.200 L 160.200 48.200 160.200 120.000 L 160.200 191.800 168.000 191.800 L 175.800 191.800 176.000 160.000 L 176.200 128.200 192.100 128.095 L 208.000 127.991 208.000 160.004 L 208.000 192.017 215.900 191.908 L 223.800 191.800 224.000 168.000 L 224.200 144.200 240.097 144.095 L 255.994 143.991 256.097 167.895 L 256.200 191.800 264.000 191.800 L 271.800 191.800 271.905 175.900 L 272.009 160.000 279.996 160.000 L 287.983 160.000 288.092 167.900 L 288.200 175.800 296.100 175.908 L 304.000 176.017 304.000 224.000 L 304.000 271.983 296.100 272.092 L 288.200 272.200 288.097 296.092 L 287.994 319.983 280.097 320.092 L 272.200 320.200 272.095 336.100 L 271.991 352.000 208.000 352.000 L 144.009 352.000 143.905 336.100 L 143.800 320.200 135.905 320.092 L 128.009 319.983 127.905 304.092 L 127.800 288.200 119.905 288.092 L 112.009 287.983 111.905 272.092 L 111.800 256.200 103.905 256.092 L 96.009 255.983 95.905 240.092 L 95.800 224.200 87.908 224.092 L 80.017 223.983 79.908 216.092 L 79.800 208.200 71.895 208.092 L 63.991 207.983 64.095 192.092 L 64.200 176.200 80.092 176.095 L 95.983 175.991 96.092 183.895 L 96.200 191.800 104.000 192.000 L 111.800 192.200 112.000 216.000 L 112.200 239.800 120.000 239.800 L 127.800 239.800 127.901 143.905 L 128.002 48.009 143.901 47.905 L 159.800 47.800 159.800 40.000 L 159.800 32.200 144.171 32.095 C 135.575 32.038,128.420 32.113,128.271 32.262 " stroke="none" fill="#000000" fill-rule="evenodd"></path><path id="path8" d="" stroke="none" fill="#e0100bc" fill-rule="evenodd"></path></g></svg>