<?xml version="1.0" standalone="no"?>
<!DOCTYPE svg PUBLIC "-//W3C//DTD SVG 20010904//EN"
 "http://www.w3.org/TR/2001/REC-SVG-20010904/DTD/svg10.dtd">
<svg version="1.0" xmlns="http://www.w3.org/2000/svg"
 width="212.000000pt" height="182.000000pt" viewBox="0 0 212.000000 182.000000"
 preserveAspectRatio="xMidYMid meet">

<g transform="translate(0.000000,182.000000) scale(0.100000,-0.100000)"
fill="#000000" stroke="none">
<path d="M458 1683 l-3 -138 -227 -3 -228 -2 0 -48 0 -47 227 0 228 0 3 -497
2 -498 -230 0 -230 0 0 -50 0 -50 230 0 230 0 0 -175 0 -175 55 0 55 0 0 175
0 175 515 0 515 0 0 -175 0 -175 50 0 50 0 0 175 0 175 210 0 210 0 0 50 0 50
-210 0 -210 0 0 493 0 494 101 7 c56 3 150 3 210 0 l109 -7 0 51 0 52 -207 2
-208 3 -3 138 -3 137 -49 0 -49 0 -3 -137 -3 -138 -512 -3 -513 -2 0 140 0
140 -55 0 -54 0 -3 -137z m1135 -242 c4 -1 6 -223 5 -493 l-3 -493 -512 -3
-513 -2 0 494 0 495 33 3 c27 3 967 2 990 -1z"/>
</g>
</svg>
