<?xml version="1.0" standalone="no"?>
<!DOCTYPE svg PUBLIC "-//W3C//DTD SVG 20010904//EN"
 "http://www.w3.org/TR/2001/REC-SVG-20010904/DTD/svg10.dtd">
<svg version="1.0" xmlns="http://www.w3.org/2000/svg"
 width="512.000000pt" height="512.000000pt" viewBox="0 0 512.000000 512.000000"
 preserveAspectRatio="xMidYMid meet">

<g transform="translate(0.000000,512.000000) scale(0.100000,-0.100000)"
fill="#000000" stroke="none">
<path d="M3943 5035 c-34 -8 -95 -31 -135 -51 -65 -33 -110 -74 -401 -363
l-327 -326 405 -405 405 -405 310 310 c171 171 327 335 348 365 58 87 84 170
89 285 9 176 -41 311 -161 431 -144 144 -336 202 -533 159z"/>
<path d="M2644 4362 c-126 -45 -191 -151 -182 -296 6 -84 37 -151 99 -212 l39
-38 -823 -826 -824 -825 -38 -155 c-21 -85 -58 -225 -82 -310 l-43 -154 176
-177 176 -176 86 27 c48 15 186 51 307 80 l220 53 827 825 827 826 51 -48 c72
-67 128 -90 220 -90 119 0 211 52 263 149 30 55 32 221 3 275 -10 19 -241 259
-515 533 -368 370 -509 505 -546 524 -67 35 -169 41 -241 15z m234 -1574
l-370 -378 -502 0 -501 0 625 625 625 625 247 -247 247 -247 -371 -378z"/>
<path d="M2750 3533 c-8 -3 -131 -120 -272 -261 -172 -172 -259 -265 -263
-284 -12 -51 28 -97 85 -98 32 0 53 19 297 263 248 247 263 265 263 299 0 56
-58 99 -110 81z"/>
<path d="M2095 2881 c-11 -5 -44 -34 -72 -64 -63 -66 -71 -110 -28 -152 43
-44 91 -28 168 54 37 39 47 57 47 83 -1 64 -57 102 -115 79z"/>
<path d="M1819 2611 c-45 -45 -51 -83 -18 -125 40 -51 127 -27 165 45 27 54
-13 119 -74 119 -27 0 -43 -9 -73 -39z"/>
<path d="M705 1432 c-139 -184 -139 -180 -10 -311 52 -54 95 -100 95 -104 0
-4 -9 -7 -19 -7 -32 0 -76 -62 -159 -228 -108 -217 -136 -302 -130 -401 5 -87
28 -140 88 -205 92 -99 244 -131 360 -74 112 55 187 160 197 278 5 46 0 77
-20 142 -30 96 -183 409 -222 456 -24 29 -25 32 -8 32 16 0 153 98 200 144 10
9 -23 47 -155 178 l-167 167 -50 -67z"/>
</g>
</svg>
